<?xml version="1.0" ?><svg id="Layer_1" style="enable-background:new 0 0 512 512;" version="1.1" viewBox="0 0 512 512" xml:space="preserve" xmlns="http://www.w3.org/2000/svg" xmlns:xlink="http://www.w3.org/1999/xlink"><g id="XMLID_4926_"><g id="XMLID_4921_"><g id="XMLID_4931_"><polyline id="XMLID_4936_" points="-6887,-3307.9 -6982.9,-3307.9 -6982.9,-3404.3    "/><g id="XMLID_4932_"><path d="M-6879.7-2911.5h-388.1v-500h295.7l92.4,96.7V-2911.5z M-7253.3-2926.1h359V-3309l-84.1-88h-274.9      V-2926.1z" id="XMLID_4933_"/></g></g><g id="XMLID_4927_"><path d="M-6921.2-2953.1h-305.3v-272.3h305.3V-2953.1z M-7211.8-2967.7h276.1v-243.2h-276.1V-2967.7z" id="XMLID_4928_"/></g><g id="XMLID_4924_"><rect height="60.8" id="XMLID_4925_" transform="matrix(0.7516 -0.6596 0.6596 0.7516 398.034 -5322.5303)" width="14.5" x="-6875.1" y="-3220.1"/></g><g id="XMLID_4922_"><rect height="14.5" id="XMLID_4923_" transform="matrix(0.6596 -0.7516 0.7516 0.6596 -80.4516 -6557.1328)" width="60.8" x="-7310.2" y="-3197"/></g></g><path d="M-7305.3-3171.7v164.9h463v-164.9H-7305.3z M-7143.6-3069.4c2.7,3.6,6.3,5.3,10.9,5.3   c4.5,0,7.9-1.2,10.3-3.5c2.3-2.4,3.5-5.8,3.5-10.2h10.6l0.1,0.3c0.1,6.7-2,12-6.5,16.1c-4.4,4.1-10.5,6.1-18,6.1   c-7.7,0-13.9-2.6-18.7-7.8c-4.8-5.2-7.2-11.8-7.2-19.9v-12.6c0-8,2.4-14.7,7.1-19.9s10.9-7.8,18.5-7.8c7.8,0,13.9,2,18.4,5.9   c4.5,4,6.6,9.4,6.5,16.3l-0.1,0.3h-10.7c0-4.4-1.2-7.8-3.6-10.1c-2.4-2.3-5.9-3.5-10.5-3.5c-4.5,0-8,1.8-10.6,5.3   c-2.6,3.6-3.9,8-3.9,13.5v12.7C-7147.5-3077.5-7146.2-3073-7143.6-3069.4z M-7055.4-3060.2c-4.3,3.3-9.9,4.9-16.9,4.9   c-6.7,0-12.6-1.8-17.6-5.4c-5-3.6-7.4-8.6-7.3-15.1l0.1-0.3h10.6c0,4,1.4,6.9,4.1,9c2.7,2,6.1,3,10,3c3.9,0,6.9-0.8,9.1-2.5   c2.2-1.6,3.2-3.9,3.2-6.7c0-2.8-1-5-2.9-6.8c-2-1.8-5.4-3.3-10.4-4.7c-7.1-2-12.6-4.5-16.4-7.7c-3.9-3.2-5.8-7.4-5.8-12.5   c0-5.3,2.1-9.7,6.4-13.2c4.2-3.4,9.7-5.2,16.3-5.2c7.1,0,12.8,1.9,17.1,5.7c4.3,3.8,6.3,8.6,6.2,14.2l-0.1,0.3h-10.6   c0-3.5-1.2-6.2-3.5-8.3c-2.3-2.1-5.4-3.1-9.2-3.1c-3.7,0-6.6,0.9-8.6,2.6c-2,1.8-3,4-3,6.8c0,2.5,1.1,4.6,3.3,6.3   c2.2,1.6,5.9,3.2,11,4.7c6.9,1.9,12.2,4.6,15.8,7.9c3.6,3.3,5.4,7.6,5.4,12.8C-7048.9-3067.8-7051.1-3063.5-7055.4-3060.2z    M-6995.5-3060.2c-4.3,3.3-9.9,4.9-16.9,4.9c-6.7,0-12.6-1.8-17.6-5.4c-5-3.6-7.4-8.6-7.3-15.1l0.1-0.3h10.6c0,4,1.4,6.9,4.1,9   c2.7,2,6.1,3,10,3c3.9,0,6.9-0.8,9.1-2.5c2.2-1.6,3.2-3.9,3.2-6.7c0-2.8-1-5-2.9-6.8c-2-1.8-5.4-3.3-10.4-4.7   c-7.1-2-12.6-4.5-16.4-7.7c-3.9-3.2-5.8-7.4-5.8-12.5c0-5.3,2.1-9.7,6.4-13.2c4.2-3.4,9.7-5.2,16.3-5.2c7.1,0,12.8,1.9,17.1,5.7   c4.3,3.8,6.3,8.6,6.2,14.2l-0.1,0.3h-10.6c0-3.5-1.2-6.2-3.5-8.3c-2.3-2.1-5.4-3.1-9.2-3.1c-3.7,0-6.6,0.9-8.6,2.6   c-2,1.8-3,4-3,6.8c0,2.5,1.1,4.6,3.3,6.3c2.2,1.6,5.9,3.2,11,4.7c6.9,1.9,12.2,4.6,15.8,7.9s5.4,7.6,5.4,12.8   C-6989-3067.8-6991.2-3063.5-6995.5-3060.2z" id="XMLID_7465_"/></g><g><g id="XMLID_4256_"><polygon id="XMLID_5972_" points="152.6,236.4 95.7,186.6 38.9,236.4 38.9,2.3 152.6,2.3   "/><g id="XMLID_5970_"><path d="M465.6,121.2h-57.8c-22.6,0-41-18.4-41-41V22.4h15v57.8c0,14.4,11.7,26,26,26h57.8V121.2z" id="XMLID_5971_"/></g><g id="XMLID_4268_"><path d="M432.1,509.8H129.3c-22.6,0-41-18.4-41-41V213.1h15v255.6c0,14.4,11.7,26,26,26h302.8     c14.4,0,26-11.7,26-26v-352L375,29.9H168.5v-15h212.9l91.7,95.8v358C473.1,491.3,454.7,509.8,432.1,509.8z" id="XMLID_5969_"/></g><g id="XMLID_4257_"><g id="XMLID_4266_"><rect height="15" id="XMLID_4267_" width="292.1" x="134.1" y="288.5"/></g><g id="XMLID_4264_"><rect height="15" id="XMLID_4265_" width="207.8" x="134.1" y="327.2"/></g><g id="XMLID_4262_"><rect height="15" id="XMLID_4263_" width="136.9" x="134.1" y="365.9"/></g><g id="XMLID_4260_"><rect height="15" id="XMLID_4261_" width="281.6" x="134.1" y="404.5"/></g><g id="XMLID_4258_"><rect height="15" id="XMLID_4259_" width="258.6" x="134.1" y="443.2"/></g></g></g><g id="XMLID_8316_"><path d="M182.3,226.2v-68h22.5c8.6,0,15.6,2.7,21.1,8.1c5.4,5.4,8.1,12.3,8.1,20.8v10.3c0,8.5-2.7,15.4-8.1,20.8    c-5.4,5.4-12.4,8-21.1,8H182.3z M193.6,167.3v49.9h11.1c5.5,0,9.8-1.8,13-5.5c3.2-3.7,4.8-8.4,4.8-14.2V187    c0-5.7-1.6-10.4-4.8-14.1c-3.2-3.7-7.5-5.5-13-5.5H193.6z" id="XMLID_8322_"/><path d="M302.7,198.3c0,8.3-2.6,15.2-7.8,20.7c-5.2,5.5-12,8.2-20.4,8.2c-8.1,0-14.8-2.7-19.9-8.2    c-5.1-5.5-7.7-12.4-7.7-20.7v-12.2c0-8.3,2.5-15.2,7.6-20.7c5.1-5.5,11.7-8.2,19.9-8.2c8.3,0,15.1,2.7,20.3,8.2    c5.2,5.5,7.9,12.4,7.9,20.7V198.3z M291.4,186c0-5.7-1.5-10.3-4.5-14c-3-3.6-7.1-5.5-12.3-5.5c-5,0-9,1.8-11.8,5.5    c-2.9,3.6-4.3,8.3-4.3,14v12.3c0,5.7,1.4,10.4,4.3,14.1c2.9,3.7,6.8,5.5,11.8,5.5c5.2,0,9.3-1.8,12.3-5.5c3-3.6,4.5-8.3,4.5-14.1    V186z" id="XMLID_8319_"/><path d="M367.4,204l0.1,0.3c0.1,6.9-2.1,12.4-6.7,16.6c-4.6,4.2-10.8,6.3-18.6,6.3c-7.9,0-14.3-2.7-19.3-8    c-4.9-5.3-7.4-12.2-7.4-20.5v-12.9c0-8.3,2.4-15.1,7.3-20.5c4.9-5.4,11.2-8.1,19-8.1c8,0,14.3,2,18.9,6.1    c4.6,4.1,6.8,9.7,6.7,16.8l-0.1,0.3h-11c0-4.5-1.2-8-3.7-10.4c-2.5-2.4-6.1-3.6-10.8-3.6c-4.6,0-8.3,1.8-11,5.5    c-2.7,3.7-4,8.3-4,13.9v13c0,5.6,1.4,10.3,4.1,13.9c2.7,3.7,6.5,5.5,11.2,5.5c4.6,0,8.2-1.2,10.6-3.6c2.4-2.4,3.6-5.9,3.6-10.5    H367.4z" id="XMLID_8317_"/></g></g></svg>