<?xml version="1.0" ?><svg id="Layer_1" style="enable-background:new 0 0 512 512;" version="1.1" viewBox="0 0 512 512" xml:space="preserve" xmlns="http://www.w3.org/2000/svg" xmlns:xlink="http://www.w3.org/1999/xlink"><g id="XMLID_4926_"><g id="XMLID_4921_"><g id="XMLID_4931_"><polyline id="XMLID_4936_" points="-6887,-3307.9 -6982.9,-3307.9 -6982.9,-3404.3    "/><g id="XMLID_4932_"><path d="M-6879.7-2911.5h-388.1v-500h295.7l92.4,96.7V-2911.5z M-7253.3-2926.1h359V-3309l-84.1-88h-274.9      V-2926.1z" id="XMLID_4933_"/></g></g><g id="XMLID_4927_"><path d="M-6921.2-2953.1h-305.3v-272.3h305.3V-2953.1z M-7211.8-2967.7h276.1v-243.2h-276.1V-2967.7z" id="XMLID_4928_"/></g><g id="XMLID_4924_"><rect height="60.8" id="XMLID_4925_" transform="matrix(0.7516 -0.6596 0.6596 0.7516 398.034 -5322.5303)" width="14.5" x="-6875.1" y="-3220.1"/></g><g id="XMLID_4922_"><rect height="14.5" id="XMLID_4923_" transform="matrix(0.6596 -0.7516 0.7516 0.6596 -80.4516 -6557.1328)" width="60.8" x="-7310.2" y="-3197"/></g></g><path d="M-7305.3-3171.7v164.9h463v-164.9H-7305.3z M-7143.6-3069.4c2.7,3.6,6.3,5.3,10.9,5.3   c4.5,0,7.9-1.2,10.3-3.5c2.3-2.4,3.5-5.8,3.5-10.2h10.6l0.1,0.3c0.1,6.7-2,12-6.5,16.1c-4.4,4.1-10.5,6.1-18,6.1   c-7.7,0-13.9-2.6-18.7-7.8c-4.8-5.2-7.2-11.8-7.2-19.9v-12.6c0-8,2.4-14.7,7.1-19.9s10.9-7.8,18.5-7.8c7.8,0,13.9,2,18.4,5.9   c4.5,4,6.6,9.4,6.5,16.3l-0.1,0.3h-10.7c0-4.4-1.2-7.8-3.6-10.1c-2.4-2.3-5.9-3.5-10.5-3.5c-4.5,0-8,1.8-10.6,5.3   c-2.6,3.6-3.9,8-3.9,13.5v12.7C-7147.5-3077.5-7146.2-3073-7143.6-3069.4z M-7055.4-3060.2c-4.3,3.3-9.9,4.9-16.9,4.9   c-6.7,0-12.6-1.8-17.6-5.4c-5-3.6-7.4-8.6-7.3-15.1l0.1-0.3h10.6c0,4,1.4,6.9,4.1,9c2.7,2,6.1,3,10,3c3.9,0,6.9-0.8,9.1-2.5   c2.2-1.6,3.2-3.9,3.2-6.7c0-2.8-1-5-2.9-6.8c-2-1.8-5.4-3.3-10.4-4.7c-7.1-2-12.6-4.5-16.4-7.7c-3.9-3.2-5.8-7.4-5.8-12.5   c0-5.3,2.1-9.7,6.4-13.2c4.2-3.4,9.7-5.2,16.3-5.2c7.1,0,12.8,1.9,17.1,5.7c4.3,3.8,6.3,8.6,6.2,14.2l-0.1,0.3h-10.6   c0-3.5-1.2-6.2-3.5-8.3c-2.3-2.1-5.4-3.1-9.2-3.1c-3.7,0-6.6,0.9-8.6,2.6c-2,1.8-3,4-3,6.8c0,2.5,1.1,4.6,3.3,6.3   c2.2,1.6,5.9,3.2,11,4.7c6.9,1.9,12.2,4.6,15.8,7.9c3.6,3.3,5.4,7.6,5.4,12.8C-7048.9-3067.8-7051.1-3063.5-7055.4-3060.2z    M-6995.5-3060.2c-4.3,3.3-9.9,4.9-16.9,4.9c-6.7,0-12.6-1.8-17.6-5.4c-5-3.6-7.4-8.6-7.3-15.1l0.1-0.3h10.6c0,4,1.4,6.9,4.1,9   c2.7,2,6.1,3,10,3c3.9,0,6.9-0.8,9.1-2.5c2.2-1.6,3.2-3.9,3.2-6.7c0-2.8-1-5-2.9-6.8c-2-1.8-5.4-3.3-10.4-4.7   c-7.1-2-12.6-4.5-16.4-7.7c-3.9-3.2-5.8-7.4-5.8-12.5c0-5.3,2.1-9.7,6.4-13.2c4.2-3.4,9.7-5.2,16.3-5.2c7.1,0,12.8,1.9,17.1,5.7   c4.3,3.8,6.3,8.6,6.2,14.2l-0.1,0.3h-10.6c0-3.5-1.2-6.2-3.5-8.3c-2.3-2.1-5.4-3.1-9.2-3.1c-3.7,0-6.6,0.9-8.6,2.6   c-2,1.8-3,4-3,6.8c0,2.5,1.1,4.6,3.3,6.3c2.2,1.6,5.9,3.2,11,4.7c6.9,1.9,12.2,4.6,15.8,7.9s5.4,7.6,5.4,12.8   C-6989-3067.8-6991.2-3063.5-6995.5-3060.2z" id="XMLID_7465_"/></g><g id="XMLID_7361_"><g id="XMLID_5952_"><polygon id="XMLID_5968_" points="154.1,236.7 98.1,187.7 42.1,236.7 42.1,6 154.1,6   "/><g id="XMLID_5966_"><path d="M462.5,123.2h-56.9c-22.3,0-40.4-18.1-40.4-40.4V25.8h14.8v56.9c0,14.1,11.5,25.6,25.6,25.6h56.9V123.2     z" id="XMLID_5967_"/></g><g id="XMLID_5964_"><path d="M429.5,506H131.1c-22.3,0-40.4-18.1-40.4-40.4V213.8h14.8v251.8c0,14.1,11.5,25.6,25.6,25.6h298.3     c14.1,0,25.6-11.5,25.6-25.6V118.8l-81.9-85.5H169.8V18.4h209.7l90.3,94.4v352.8C469.9,487.9,451.8,506,429.5,506z" id="XMLID_5965_"/></g><g id="XMLID_5953_"><g id="XMLID_5962_"><rect height="14.8" id="XMLID_5963_" width="287.8" x="135.9" y="288.1"/></g><g id="XMLID_5960_"><rect height="14.8" id="XMLID_5961_" width="204.8" x="135.9" y="326.2"/></g><g id="XMLID_5958_"><rect height="14.8" id="XMLID_5959_" width="134.9" x="135.9" y="364.2"/></g><g id="XMLID_5956_"><rect height="14.8" id="XMLID_5957_" width="277.4" x="135.9" y="402.3"/></g><g id="XMLID_5954_"><rect height="14.8" id="XMLID_5955_" width="254.8" x="135.9" y="440.4"/></g></g></g><g id="XMLID_8659_"><path d="M168.7,243.8v-57.5h19c7.3,0,13.2,2.3,17.8,6.8c4.6,4.6,6.8,10.4,6.8,17.6v8.7c0,7.2-2.3,13-6.8,17.6    c-4.6,4.5-10.5,6.8-17.8,6.8H168.7z M178.3,194.1v42.1h9.4c4.6,0,8.3-1.6,11-4.7c2.7-3.1,4.1-7.1,4.1-12v-8.8    c0-4.8-1.4-8.8-4.1-11.9c-2.7-3.1-6.4-4.7-11-4.7H178.3z" id="XMLID_8667_"/><path d="M270.4,220.3c0,7-2.2,12.8-6.6,17.5c-4.4,4.6-10.1,6.9-17.2,6.9c-6.9,0-12.5-2.3-16.8-6.9    c-4.3-4.6-6.5-10.4-6.5-17.5v-10.3c0-7,2.2-12.8,6.5-17.4c4.3-4.6,9.9-6.9,16.8-6.9c7,0,12.7,2.3,17.2,6.9    c4.4,4.6,6.6,10.4,6.6,17.4V220.3z M260.8,209.9c0-4.8-1.3-8.7-3.8-11.8c-2.6-3.1-6-4.6-10.4-4.6c-4.2,0-7.6,1.5-10,4.6    c-2.4,3.1-3.7,7-3.7,11.8v10.4c0,4.8,1.2,8.8,3.7,11.9c2.4,3.1,5.8,4.6,10,4.6c4.4,0,7.9-1.5,10.4-4.6c2.5-3.1,3.8-7,3.8-11.9    V209.9z" id="XMLID_8664_"/><path d="M325,225.1l0.1,0.2c0.1,5.8-1.8,10.5-5.6,14c-3.9,3.6-9.1,5.3-15.7,5.3c-6.7,0-12.1-2.3-16.3-6.8    c-4.2-4.5-6.2-10.3-6.2-17.3v-10.9c0-7,2.1-12.8,6.2-17.3c4.1-4.5,9.5-6.8,16.1-6.8c6.8,0,12.1,1.7,16,5.2    c3.9,3.4,5.8,8.2,5.7,14.2l-0.1,0.2h-9.3c0-3.8-1-6.8-3.1-8.8c-2.1-2-5.1-3.1-9.2-3.1c-3.9,0-7,1.5-9.3,4.6    c-2.3,3.1-3.4,7-3.4,11.7v11c0,4.8,1.2,8.7,3.5,11.8c2.3,3.1,5.5,4.6,9.5,4.6c3.9,0,6.9-1,8.9-3.1c2-2.1,3.1-5,3.1-8.9H325z" id="XMLID_8662_"/><path d="M356.4,207.6l12.1-21.2h11.4l-17.7,28.5l18.3,29H369l-12.5-21.6L344,243.8h-11.4l18.1-29l-17.7-28.5    h11.3L356.4,207.6z" id="XMLID_8660_"/></g></g></svg>